ISO-10303-21;
HEADER;
FILE_DESCRIPTION (( 'STEP AP203' ),
    '1' );
FILE_NAME ('K01-P-007.STEP',
    '2026-09-07T14:31:19',
    ( 'Windows User' ),
    ( '' ),
    'SwSTEP 2.0',
    'SolidWorks 2018',
    '' );
FILE_SCHEMA (( 'CONFIG_CONTROL_DESIGN' ));
ENDSEC;

DATA;
#1 = CARTESIAN_POINT ( 'NONE',  ( -2.601496728971953054, 1.734723475976807094E-15, -13.25000000000000178 ) ) ;
#2 = COORDINATED_UNIVERSAL_TIME_OFFSET ( 2, 0, .AHEAD. ) ;
#3 = VECTOR ( 'NONE', #426, 1000.000000000000000 ) ;
#4 = DIRECTION ( 'NONE',  ( -1.000000000000000000, 0.000000000000000000, -0.000000000000000000 ) ) ;
#5 = VECTOR ( 'NONE', #757, 1000.000000000000000 ) ;
#6 = EDGE_LOOP ( 'NONE', ( #874, #561, #808, #755 ) ) ;
#7 = ORIENTED_EDGE ( 'NONE', *, *, #210, .F. ) ;
#8 = AXIS2_PLACEMENT_3D ( 'NONE', #297, #827, #495 ) ;
#9 = AXIS2_PLACEMENT_3D ( 'NONE', #858, #120, #654 ) ;
#10 = DIRECTION ( 'NONE',  ( 0.000000000000000000, 0.000000000000000000, 1.000000000000000000 ) ) ;
#11 = CARTESIAN_POINT ( 'NONE',  ( -9.601496728971953942, 0.000000000000000000, 5.000000000000000000 ) ) ;
#12 = CIRCLE ( 'NONE', #146, 1.449999999999999956 ) ;
#13 = DIRECTION ( 'NONE',  ( 0.000000000000000000, 0.000000000000000000, -1.000000000000000000 ) ) ;
#14 = ORIENTED_EDGE ( 'NONE', *, *, #81, .T. ) ;
#15 = CC_DESIGN_PERSON_AND_ORGANIZATION_ASSIGNMENT ( #728, #514, ( #195 ) ) ;
#16 = DIRECTION ( 'NONE',  ( 0.000000000000000000, 0.000000000000000000, 1.000000000000000000 ) ) ;
#17 = ADVANCED_FACE ( 'NONE', ( #446 ), #181, .T. ) ;
#18 = ORIENTED_EDGE ( 'NONE', *, *, #454, .T. ) ;
#19 = ORIENTED_EDGE ( 'NONE', *, *, #186, .F. ) ;
#20 = CARTESIAN_POINT ( 'NONE',  ( -2.601496728971953054, -11.47483660014381535, 6.624999999999995559 ) ) ;
#21 = CARTESIAN_POINT ( 'NONE',  ( -2.601496728971953054, -1.255736835487434089, -12.52500000000000213 ) ) ;
#22 = DIRECTION ( 'NONE',  ( 0.000000000000000000, 0.000000000000000000, 1.000000000000000000 ) ) ;
#23 = DIRECTION ( 'NONE',  ( -1.000000000000000000, -0.000000000000000000, -0.000000000000000000 ) ) ;
#24 = CIRCLE ( 'NONE', #254, 1.450000000000000400 ) ;
#25 = CARTESIAN_POINT ( 'NONE',  ( -2.600496728971953164, 0.000000000000000000, 8.000000000000000000 ) ) ;
#26 = FACE_BOUND ( 'NONE', #477, .T. ) ;
#27 = ORIENTED_EDGE ( 'NONE', *, *, #781, .T. ) ;
#28 = ORIENTED_EDGE ( 'NONE', *, *, #626, .F. ) ;
#29 = CARTESIAN_POINT ( 'NONE',  ( 0.3985032710280469459, 1.255736835487437864, -13.97500000000000142 ) ) ;
#30 = ORIENTED_EDGE ( 'NONE', *, *, #119, .T. ) ;
#31 = DIRECTION ( 'NONE',  ( -1.000000000000000000, -0.000000000000000000, -0.000000000000000000 ) ) ;
#32 = CARTESIAN_POINT ( 'NONE',  ( -2.600496728971953164, 9.797174393178825657E-16, -8.000000000000000000 ) ) ;
#33 = PERSON_AND_ORGANIZATION_ROLE ( 'creator' ) ;
#34 = CARTESIAN_POINT ( 'NONE',  ( -2.601496728971953054, -12.73057343563125166, 5.899999999999995026 ) ) ;
#35 = CIRCLE ( 'NONE', #354, 8.000000000000000000 ) ;
#36 = CIRCLE ( 'NONE', #843, 8.000000000000000000 ) ;
#37 = DIRECTION ( 'NONE',  ( -1.000000000000000000, 0.000000000000000000, 0.000000000000000000 ) ) ;
#38 = VERTEX_POINT ( 'NONE', #620 ) ;
#39 = AXIS2_PLACEMENT_3D ( 'NONE', #414, #483, #289 ) ;
#40 = ORIENTED_EDGE ( 'NONE', *, *, #555, .T. ) ;
#41 = AXIS2_PLACEMENT_3D ( 'NONE', #788, #47, #381 ) ;
#42 = DIRECTION ( 'NONE',  ( 0.000000000000000000, 0.000000000000000000, 1.000000000000000000 ) ) ;
#43 = PERSON_AND_ORGANIZATION_ROLE ( 'classification_officer' ) ;
#44 = DIRECTION ( 'NONE',  ( -1.000000000000000000, -0.000000000000000000, -0.000000000000000000 ) ) ;
#45 = LOCAL_TIME ( 17, 31, 19.00000000000000000, #417 ) ;
#46 = PRODUCT ( 'K01-P-007', 'K01-P-007', '', ( #639 ) ) ;
#47 = DIRECTION ( 'NONE',  ( -1.000000000000000000, -0.000000000000000000, 0.000000000000000000 ) ) ;
#48 = CIRCLE ( 'NONE', #167, 1.450000000000000400 ) ;
#49 = ORIENTED_EDGE ( 'NONE', *, *, #585, .F. ) ;
#50 = ORIENTED_EDGE ( 'NONE', *, *, #645, .F. ) ;
#51 = CARTESIAN_POINT ( 'NONE',  ( 31.39850327102804783, 0.000000000000000000, 4.700000000000000178 ) ) ;
#52 = CC_DESIGN_APPROVAL ( #517, ( #837 ) ) ;
#53 = DIRECTION ( 'NONE',  ( -1.000000000000000000, -0.000000000000000000, -0.000000000000000000 ) ) ;
#54 = AXIS2_PLACEMENT_3D ( 'NONE', #727, #204, #865 ) ;
#55 = FACE_OUTER_BOUND ( 'NONE', #689, .T. ) ;
#56 = CYLINDRICAL_SURFACE ( 'NONE', #438, 1.449999999999999956 ) ;
#57 = CARTESIAN_POINT ( 'NONE',  ( 31.39850327102804783, 0.000000000000000000, 0.000000000000000000 ) ) ;
#58 = ORIENTED_EDGE ( 'NONE', *, *, #228, .F. ) ;
#59 = ORIENTED_EDGE ( 'NONE', *, *, #322, .F. ) ;
#60 = DIRECTION ( 'NONE',  ( 0.000000000000000000, 0.000000000000000000, 1.000000000000000000 ) ) ;
#61 = CARTESIAN_POINT ( 'NONE',  ( -2.601496728971953054, -10.21909976465637904, 7.349999999999995204 ) ) ;
#62 = CALENDAR_DATE ( 2026, 7, 9 ) ;
#63 = CIRCLE ( 'NONE', #132, 5.000000000000000000 ) ;
#64 = ORIENTED_EDGE ( 'NONE', *, *, #253, .F. ) ;
#65 = DIRECTION ( 'NONE',  ( -0.000000000000000000, 0.000000000000000000, 1.000000000000000000 ) ) ;
#66 = ORIENTED_EDGE ( 'NONE', *, *, #725, .T. ) ;
#67 = CARTESIAN_POINT ( 'NONE',  ( 0.5985032710280470125, 11.47483660014381179, 8.074999999999999289 ) ) ;
#68 = PRODUCT_DEFINITION ( 'UNKNOWN', '', #837, #745 ) ;
#69 = DIRECTION ( 'NONE',  ( -1.000000000000000000, 0.000000000000000000, 0.000000000000000000 ) ) ;
#70 = CYLINDRICAL_SURFACE ( 'NONE', #617, 10.00000000000000000 ) ;
#71 = CARTESIAN_POINT ( 'NONE',  ( -2.600496728971953164, 0.000000000000000000, 0.000000000000000000 ) ) ;
#72 = CC_DESIGN_SECURITY_CLASSIFICATION ( #195, ( #261 ) ) ;
#73 = CIRCLE ( 'NONE', #792, 7.049999999999999822 ) ;
#74 = ADVANCED_FACE ( 'NONE', ( #305 ), #795, .F. ) ;
#75 = ORIENTED_EDGE ( 'NONE', *, *, #213, .T. ) ;
#76 = VERTEX_POINT ( 'NONE', #614 ) ;
#77 = DIRECTION ( 'NONE',  ( -1.000000000000000000, -0.000000000000000000, -0.000000000000000000 ) ) ;
#78 = AXIS2_PLACEMENT_3D ( 'NONE', #500, #100, #108 ) ;
#79 = DIRECTION ( 'NONE',  ( 1.000000000000000000, 0.000000000000000000, 0.000000000000000000 ) ) ;
#80 = CARTESIAN_POINT ( 'NONE',  ( -9.601496728971953942, 0.000000000000000000, 0.000000000000000000 ) ) ;
#81 = EDGE_CURVE ( 'NONE', #127, #115, #144, .T. ) ;
#82 = CARTESIAN_POINT ( 'NONE',  ( -9.601496728971953942, 5.755839955992559655E-16, -4.700000000000000178 ) ) ;
#83 = DATE_AND_TIME ( #197, #471 ) ;
#84 = DIRECTION ( 'NONE',  ( -1.000000000000000000, 0.000000000000000000, 0.000000000000000000 ) ) ;
#85 = EDGE_CURVE ( 'NONE', #38, #570, #73, .T. ) ;
#86 = FACE_BOUND ( 'NONE', #776, .T. ) ;
#87 = DIRECTION ( 'NONE',  ( 0.000000000000000000, 0.8660254037844384856, 0.5000000000000003331 ) ) ;
#88 = ORIENTED_EDGE ( 'NONE', *, *, #787, .T. ) ;
#89 = CARTESIAN_POINT ( 'NONE',  ( -0.6014967289719521659, 0.000000000000000000, 0.000000000000000000 ) ) ;
#90 = EDGE_LOOP ( 'NONE', ( #661, #201 ) ) ;
#91 = ADVANCED_FACE ( 'NONE', ( #373 ), #657, .F. ) ;
#92 = DIRECTION ( 'NONE',  ( 0.000000000000000000, 0.000000000000000000, 1.000000000000000000 ) ) ;
#93 = DIRECTION ( 'NONE',  ( -1.000000000000000000, 0.000000000000000000, 0.000000000000000000 ) ) ;
#94 = PRODUCT_DEFINITION ( 'UNKNOWN', '', #261, #674 ) ;
#95 = DIRECTION ( 'NONE',  ( 0.000000000000000000, 0.000000000000000000, 1.000000000000000000 ) ) ;
#96 = ADVANCED_FACE ( 'NONE', ( #871 ), #501, .T. ) ;
#97 = CALENDAR_DATE ( 2026, 7, 9 ) ;
#98 = DIRECTION ( 'NONE',  ( 0.000000000000000000, 0.000000000000000000, 1.000000000000000000 ) ) ;
#99 = CIRCLE ( 'NONE', #564, 16.50000000000000000 ) ;
#100 = DIRECTION ( 'NONE',  ( -1.000000000000000000, -0.000000000000000000, -0.000000000000000000 ) ) ;
#101 = FACE_BOUND ( 'NONE', #382, .T. ) ;
#102 = AXIS2_PLACEMENT_3D ( 'NONE', #80, #833, #420 ) ;
#103 = AXIS2_PLACEMENT_3D ( 'NONE', #461, #531, #60 ) ;
#104 = ORIENTED_EDGE ( 'NONE', *, *, #764, .F. ) ;
#105 = APPROVAL_ROLE ( '' ) ;
#106 = EDGE_LOOP ( 'NONE', ( #453, #184, #734, #722 ) ) ;
#107 = DIRECTION ( 'NONE',  ( -1.000000000000000000, -0.000000000000000000, -0.000000000000000000 ) ) ;
#108 = DIRECTION ( 'NONE',  ( 0.000000000000000000, 0.000000000000000000, 1.000000000000000000 ) ) ;
#109 = SECURITY_CLASSIFICATION_LEVEL ( 'unclassified' ) ;
#110 = DIRECTION ( 'NONE',  ( 0.000000000000000000, 0.000000000000000000, 1.000000000000000000 ) ) ;
#111 = PERSON_AND_ORGANIZATION ( #251, #705 ) ;
#112 = APPROVAL_ROLE ( '' ) ;
#113 = CIRCLE ( 'NONE', #859, 1.450000000000000400 ) ;
#114 = CARTESIAN_POINT ( 'NONE',  ( 0.3985032710280469459, 11.47483660014381179, 8.074999999999999289 ) ) ;
#115 = VERTEX_POINT ( 'NONE', #21 ) ;
#116 = EDGE_LOOP ( 'NONE', ( #873, #75, #298, #648 ) ) ;
#117 = ORIENTED_EDGE ( 'NONE', *, *, #344, .T. ) ;
#118 = DIRECTION ( 'NONE',  ( 0.000000000000000000, 0.000000000000000000, 1.000000000000000000 ) ) ;
#119 = EDGE_CURVE ( 'NONE', #570, #38, #721, .T. ) ;
#120 = DIRECTION ( 'NONE',  ( 1.000000000000000000, 0.000000000000000000, 0.000000000000000000 ) ) ;
#121 = AXIS2_PLACEMENT_3D ( 'NONE', #817, #398, #602 ) ;
#122 = PERSON_AND_ORGANIZATION ( #251, #705 ) ;
#123 = CYLINDRICAL_SURFACE ( 'NONE', #238, 1.450000000000000844 ) ;
#124 = VECTOR ( 'NONE', #107, 1000.000000000000000 ) ;
#125 = VERTEX_POINT ( 'NONE', #691 ) ;
#126 = DIRECTION ( 'NONE',  ( 0.000000000000000000, 0.8660254037844385966, -0.4999999999999998335 ) ) ;
#127 = VERTEX_POINT ( 'NONE', #299 ) ;
#128 = APPROVAL ( #436, 'UNSPECIFIED' ) ;
#129 = CARTESIAN_POINT ( 'NONE',  ( 0.5985032710280470125, -11.47483660014381535, 6.624999999999995559 ) ) ;
#130 = DIRECTION ( 'NONE',  ( -1.000000000000000000, 0.000000000000000000, -0.000000000000000000 ) ) ;
#131 = AXIS2_PLACEMENT_3D ( 'NONE', #150, #754, #294 ) ;
#132 = AXIS2_PLACEMENT_3D ( 'NONE', #424, #23, #493 ) ;
#133 = DATE_AND_TIME ( #165, #685 ) ;
#134 = CIRCLE ( 'NONE', #594, 8.000000000000000000 ) ;
#135 = CARTESIAN_POINT ( 'NONE',  ( 0.3985032710280469459, -1.255736835487434089, -12.52500000000000213 ) ) ;
#136 = VERTEX_POINT ( 'NONE', #359 ) ;
#137 = ORIENTED_EDGE ( 'NONE', *, *, #407, .T. ) ;
#138 = EDGE_CURVE ( 'NONE', #529, #260, #589, .T. ) ;
#139 = EDGE_LOOP ( 'NONE', ( #733, #636 ) ) ;
#140 = DIRECTION ( 'NONE',  ( 1.000000000000000000, 0.000000000000000000, 0.000000000000000000 ) ) ;
#141 = DIRECTION ( 'NONE',  ( -1.000000000000000000, 0.000000000000000000, 0.000000000000000000 ) ) ;
#142 = CC_DESIGN_APPROVAL ( #205, ( #94 ) ) ;
#143 = CIRCLE ( 'NONE', #660, 10.00000000000000000 ) ;
#144 = CIRCLE ( 'NONE', #820, 1.450000000000000400 ) ;
#145 = VERTEX_POINT ( 'NONE', #415 ) ;
#146 = AXIS2_PLACEMENT_3D ( 'NONE', #351, #490, #160 ) ;
#147 = ADVANCED_FACE ( 'NONE', ( #686 ), #280, .T. ) ;
#148 = CARTESIAN_POINT ( 'NONE',  ( 0.5985032710280470125, -10.21909976465637904, 7.349999999999996092 ) ) ;
#149 = AXIS2_PLACEMENT_3D ( 'NONE', #200, #130, #272 ) ;
#150 = CARTESIAN_POINT ( 'NONE',  ( -9.601496728971953942, 0.000000000000000000, 0.000000000000000000 ) ) ;
#151 = CARTESIAN_POINT ( 'NONE',  ( -0.6014967289719521659, 5.755839955992559655E-16, -4.700000000000000178 ) ) ;
#152 = COORDINATED_UNIVERSAL_TIME_OFFSET ( 2, 0, .AHEAD. ) ;
#153 =( NAMED_UNIT ( * ) PLANE_ANGLE_UNIT ( ) SI_UNIT ( $, .RADIAN. ) );
#154 = CIRCLE ( 'NONE', #577, 4.700000000000000178 ) ;
#155 = DIRECTION ( 'NONE',  ( -1.000000000000000000, -0.000000000000000000, -0.000000000000000000 ) ) ;
#156 = ORIENTED_EDGE ( 'NONE', *, *, #138, .T. ) ;
#157 = EDGE_LOOP ( 'NONE', ( #678, #476, #872, #182 ) ) ;
#158 = CARTESIAN_POINT ( 'NONE',  ( 0.3985032710280469459, -11.47483660014381535, 6.624999999999995559 ) ) ;
#159 = ORIENTED_EDGE ( 'NONE', *, *, #803, .T. ) ;
#160 = DIRECTION ( 'NONE',  ( 0.000000000000000000, 0.000000000000000000, 1.000000000000000000 ) ) ;
#161 = CARTESIAN_POINT ( 'NONE',  ( -2.600496728971953164, 0.000000000000000000, 0.000000000000000000 ) ) ;
#162 = DIRECTION ( 'NONE',  ( -1.000000000000000000, -0.000000000000000000, -0.000000000000000000 ) ) ;
#163 = DIRECTION ( 'NONE',  ( -1.000000000000000000, -0.000000000000000000, -0.000000000000000000 ) ) ;
#164 = CARTESIAN_POINT ( 'NONE',  ( 0.3985032710280469459, 2.020667218593133100E-15, -16.50000000000000000 ) ) ;
#165 = CALENDAR_DATE ( 2026, 7, 9 ) ;
#166 = CYLINDRICAL_SURFACE ( 'NONE', #384, 10.00000000000000000 ) ;
#167 = AXIS2_PLACEMENT_3D ( 'NONE', #735, #140, #737 ) ;
#168 = DIRECTION ( 'NONE',  ( -1.000000000000000000, -0.000000000000000000, -0.000000000000000000 ) ) ;
#169 = LINE ( 'NONE', #82, #826 ) ;
#170 = DIRECTION ( 'NONE',  ( 0.000000000000000000, 0.8660254037844385966, -0.4999999999999998335 ) ) ;
#171 = ORIENTED_EDGE ( 'NONE', *, *, #494, .T. ) ;
#172 = ORIENTED_EDGE ( 'NONE', *, *, #119, .F. ) ;
#173 = APPLICATION_CONTEXT ( 'configuration controlled 3d designs of mechanical parts and assemblies' ) ;
#174 = EDGE_CURVE ( 'NONE', #262, #434, #198, .T. ) ;
#175 = APPLICATION_CONTEXT ( 'configuration controlled 3d designs of mechanical parts and assemblies' ) ;
#176 = CC_DESIGN_SECURITY_CLASSIFICATION ( #524, ( #837 ) ) ;
#177 = DIRECTION ( 'NONE',  ( 0.000000000000000000, 0.000000000000000000, 1.000000000000000000 ) ) ;
#178 = PERSON_AND_ORGANIZATION ( #251, #705 ) ;
#179 = DIRECTION ( 'NONE',  ( 1.000000000000000000, 0.000000000000000000, 0.000000000000000000 ) ) ;
#180 = DATE_AND_TIME ( #811, #418 ) ;
#181 = CYLINDRICAL_SURFACE ( 'NONE', #731, 16.50000000000000000 ) ;
#182 = ORIENTED_EDGE ( 'NONE', *, *, #612, .F. ) ;
#183 = PERSON_AND_ORGANIZATION_ROLE ( 'creator' ) ;
#184 = ORIENTED_EDGE ( 'NONE', *, *, #604, .F. ) ;
#185 = VERTEX_POINT ( 'NONE', #610 ) ;
#186 = EDGE_CURVE ( 'NONE', #864, #423, #12, .T. ) ;
#187 = APPLICATION_PROTOCOL_DEFINITION ( 'international standard', 'config_control_design', 1994, #430 ) ;
#188 = CARTESIAN_POINT ( 'NONE',  ( 0.3985032710280469459, 0.000000000000000000, 0.000000000000000000 ) ) ;
#189 = CARTESIAN_POINT ( 'NONE',  ( 32.39850327102804783, 0.000000000000000000, 0.000000000000000000 ) ) ;
#190 = APPROVAL_DATE_TIME ( #83, #276 ) ;
#191 = CIRCLE ( 'NONE', #329, 4.700000000000000178 ) ;
#192 = EDGE_CURVE ( 'NONE', #522, #202, #169, .T. ) ;
#193 = CIRCLE ( 'NONE', #523, 5.000000000000000000 ) ;
#194 = EDGE_LOOP ( 'NONE', ( #842, #697 ) ) ;
#195 = SECURITY_CLASSIFICATION ( '', '', #369 ) ;
#196 = DIRECTION ( 'NONE',  ( -1.000000000000000000, 0.000000000000000000, -0.000000000000000000 ) ) ;
#197 = CALENDAR_DATE ( 2026, 7, 9 ) ;
#198 = LINE ( 'NONE', #355, #696 ) ;
#199 = EDGE_LOOP ( 'NONE', ( #319, #293 ) ) ;
#200 = CARTESIAN_POINT ( 'NONE',  ( -0.6014967289719521659, 0.000000000000000000, 0.000000000000000000 ) ) ;
#201 = ORIENTED_EDGE ( 'NONE', *, *, #269, .F. ) ;
#202 = VERTEX_POINT ( 'NONE', #151 ) ;
#203 = CARTESIAN_POINT ( 'NONE',  ( 31.39850327102804783, 5.755839955992559655E-16, -4.700000000000000178 ) ) ;
#204 = DIRECTION ( 'NONE',  ( -1.000000000000000000, 0.000000000000000000, -0.000000000000000000 ) ) ;
#205 = APPROVAL ( #847, 'UNSPECIFIED' ) ;
#206 = APPROVAL_DATE_TIME ( #236, #771 ) ;
#207 = PERSON_AND_ORGANIZATION ( #251, #705 ) ;
#208 = FACE_OUTER_BOUND ( 'NONE', #241, .T. ) ;
#209 = CIRCLE ( 'NONE', #312, 7.049999999999999822 ) ;
#210 = EDGE_CURVE ( 'NONE', #455, #528, #730, .T. ) ;
#211 = EDGE_LOOP ( 'NONE', ( #742, #647 ) ) ;
#212 = EDGE_LOOP ( 'NONE', ( #66, #600 ) ) ;
#213 = EDGE_CURVE ( 'NONE', #38, #679, #862, .T. ) ;
#214 = CARTESIAN_POINT ( 'NONE',  ( -2.600496728971953164, 0.000000000000000000, 0.000000000000000000 ) ) ;
#215 = AXIS2_PLACEMENT_3D ( 'NONE', #863, #53, #856 ) ;
#216 = DIRECTION ( 'NONE',  ( -1.000000000000000000, 0.000000000000000000, -0.000000000000000000 ) ) ;
#217 = ADVANCED_FACE ( 'NONE', ( #708 ), #739, .T. ) ;
#218 = DIRECTION ( 'NONE',  ( -1.000000000000000000, 0.000000000000000000, 0.000000000000000000 ) ) ;
#219 = CIRCLE ( 'NONE', #732, 1.449999999999999956 ) ;
#220 = CIRCLE ( 'NONE', #532, 1.450000000000000844 ) ;
#221 = CARTESIAN_POINT ( 'NONE',  ( 0.5985032710280470125, -11.47483660014381535, 6.624999999999995559 ) ) ;
#222 = ORIENTED_EDGE ( 'NONE', *, *, #585, .T. ) ;
#223 = DIRECTION ( 'NONE',  ( -1.000000000000000000, 0.000000000000000000, -0.000000000000000000 ) ) ;
#224 = ORIENTED_EDGE ( 'NONE', *, *, #357, .F. ) ;
#225 = DIRECTION ( 'NONE',  ( 0.000000000000000000, 0.000000000000000000, 1.000000000000000000 ) ) ;
#226 = CARTESIAN_POINT ( 'NONE',  ( -9.601496728971953942, 0.000000000000000000, 0.000000000000000000 ) ) ;
#227 = CARTESIAN_POINT ( 'NONE',  ( -0.6014967289719521659, 0.000000000000000000, 4.700000000000000178 ) ) ;
#228 = EDGE_CURVE ( 'NONE', #250, #768, #380, .T. ) ;
#229 = DIRECTION ( 'NONE',  ( 0.000000000000000000, 0.000000000000000000, 1.000000000000000000 ) ) ;
#230 = DIRECTION ( 'NONE',  ( -1.000000000000000000, -0.000000000000000000, -0.000000000000000000 ) ) ;
#231 = ORIENTED_EDGE ( 'NONE', *, *, #496, .F. ) ;
#232 = ORIENTED_EDGE ( 'NONE', *, *, #725, .F. ) ;
#233 = CARTESIAN_POINT ( 'NONE',  ( -2.600496728971953164, 0.000000000000000000, 0.000000000000000000 ) ) ;
#234 = CARTESIAN_POINT ( 'NONE',  ( -2.601496728971953054, 9.797174393178825657E-16, -8.000000000000000000 ) ) ;
#235 = APPROVAL_ROLE ( '' ) ;
#236 = DATE_AND_TIME ( #665, #45 ) ;
#237 = FACE_OUTER_BOUND ( 'NONE', #271, .T. ) ;
#238 = AXIS2_PLACEMENT_3D ( 'NONE', #221, #680, #741 ) ;
#239 = APPROVAL_ROLE ( '' ) ;
#240 = ORIENTED_EDGE ( 'NONE', *, *, #301, .T. ) ;
#241 = EDGE_LOOP ( 'NONE', ( #30, #242 ) ) ;
#242 = ORIENTED_EDGE ( 'NONE', *, *, #85, .T. ) ;
#243 = APPROVAL_STATUS ( 'not_yet_approved' ) ;
#244 = CARTESIAN_POINT ( 'NONE',  ( 0.5985032710280470125, 1.734723475976807094E-15, -13.25000000000000178 ) ) ;
#245 = APPROVAL_STATUS ( 'not_yet_approved' ) ;
#246 = COORDINATED_UNIVERSAL_TIME_OFFSET ( 2, 0, .AHEAD. ) ;
#247 = PERSON_AND_ORGANIZATION ( #251, #705 ) ;
#248 = LINE ( 'NONE', #282, #536 ) ;
#249 = ORIENTED_EDGE ( 'NONE', *, *, #592, .F. ) ;
#250 = VERTEX_POINT ( 'NONE', #630 ) ;
#251 = PERSON ( 'UNSPECIFIED', 'UNSPECIFIED', 'UNSPECIFIED', ('UNSPECIFIED'), ('UNSPECIFIED'), ('UNSPECIFIED') ) ;
#252 = DIRECTION ( 'NONE',  ( -1.000000000000000000, 0.000000000000000000, 0.000000000000000000 ) ) ;
#253 = EDGE_CURVE ( 'NONE', #125, #136, #841, .T. ) ;
#254 = AXIS2_PLACEMENT_3D ( 'NONE', #408, #479, #480 ) ;
#255 = CARTESIAN_POINT ( 'NONE',  ( 0.3985032710280469459, 0.000000000000000000, 16.50000000000000000 ) ) ;
#256 = COORDINATED_UNIVERSAL_TIME_OFFSET ( 2, 0, .AHEAD. ) ;
#257 = LINE ( 'NONE', #868, #840 ) ;
#258 = VECTOR ( 'NONE', #709, 1000.000000000000000 ) ;
#259 = CARTESIAN_POINT ( 'NONE',  ( 0.3985032710280469459, 2.020667218593133100E-15, -16.50000000000000000 ) ) ;
#260 = VERTEX_POINT ( 'NONE', #845 ) ;
#261 = PRODUCT_DEFINITION_FORMATION_WITH_SPECIFIED_SOURCE ( 'ANY', '', #46, .NOT_KNOWN. ) ;
#262 = VERTEX_POINT ( 'NONE', #568 ) ;
#263 = CARTESIAN_POINT ( 'NONE',  ( -2.601496728971953054, 2.020667218593133100E-15, -16.50000000000000000 ) ) ;
#264 = DIRECTION ( 'NONE',  ( -1.000000000000000000, -0.000000000000000000, -0.000000000000000000 ) ) ;
#265 = EDGE_CURVE ( 'NONE', #467, #365, #432, .T. ) ;
#266 = AXIS2_PLACEMENT_3D ( 'NONE', #161, #698, #487 ) ;
#267 = CARTESIAN_POINT ( 'NONE',  ( -2.601496728971953054, 0.000000000000000000, 0.000000000000000000 ) ) ;
#268 = DATE_AND_TIME ( #869, #323 ) ;
#269 = EDGE_CURVE ( 'NONE', #679, #185, #753, .T. ) ;
#270 = CIRCLE ( 'NONE', #409, 1.450000000000000844 ) ;
#271 = EDGE_LOOP ( 'NONE', ( #806, #40, #796, #14 ) ) ;
#272 = DIRECTION ( 'NONE',  ( -0.000000000000000000, 0.000000000000000000, 1.000000000000000000 ) ) ;
#273 = ORIENTED_EDGE ( 'NONE', *, *, #443, .F. ) ;
#274 = DIRECTION ( 'NONE',  ( -1.000000000000000000, -0.000000000000000000, -0.000000000000000000 ) ) ;
#275 = EDGE_CURVE ( 'NONE', #434, #260, #813, .T. ) ;
#276 = APPROVAL ( #770, 'UNSPECIFIED' ) ;
#277 = PERSON_AND_ORGANIZATION ( #251, #705 ) ;
#278 = ADVANCED_FACE ( 'NONE', ( #526 ), #388, .F. ) ;
#279 = FACE_OUTER_BOUND ( 'NONE', #410, .T. ) ;
#280 = CYLINDRICAL_SURFACE ( 'NONE', #131, 5.000000000000000000 ) ;
#281 = ORIENTED_EDGE ( 'NONE', *, *, #506, .F. ) ;
#282 = CARTESIAN_POINT ( 'NONE',  ( 0.5985032710280470125, 11.47483660014381179, 5.174999999999998934 ) ) ;
#283 = AXIS2_PLACEMENT_3D ( 'NONE', #541, #4, #65 ) ;
#284 = DIRECTION ( 'NONE',  ( -1.000000000000000000, 0.000000000000000000, 0.000000000000000000 ) ) ;
#285 = CARTESIAN_POINT ( 'NONE',  ( -0.6014967289719521659, 0.000000000000000000, 0.000000000000000000 ) ) ;
#286 = ADVANCED_FACE ( 'NONE', ( #635 ), #56, .F. ) ;
#287 =( NAMED_UNIT ( * ) SI_UNIT ( $, .STERADIAN. ) SOLID_ANGLE_UNIT ( ) );
#288 = CALENDAR_DATE ( 2026, 7, 9 ) ;
#289 = DIRECTION ( 'NONE',  ( 0.000000000000000000, 0.000000000000000000, 1.000000000000000000 ) ) ;
#290 = PERSON_AND_ORGANIZATION ( #251, #705 ) ;
#291 = CYLINDRICAL_SURFACE ( 'NONE', #371, 1.449999999999999956 ) ;
#292 = DIRECTION ( 'NONE',  ( 0.000000000000000000, -0.8660254037844384856, -0.5000000000000003331 ) ) ;
#293 = ORIENTED_EDGE ( 'NONE', *, *, #454, .F. ) ;
#294 = DIRECTION ( 'NONE',  ( 0.000000000000000000, 0.000000000000000000, 1.000000000000000000 ) ) ;
#295 = ADVANCED_FACE ( 'NONE', ( #350 ), #677, .F. ) ;
#296 = ORIENTED_EDGE ( 'NONE', *, *, #496, .T. ) ;
#297 = CARTESIAN_POINT ( 'NONE',  ( -9.601496728971953942, 0.000000000000000000, 0.000000000000000000 ) ) ;
#298 = ORIENTED_EDGE ( 'NONE', *, *, #269, .T. ) ;
#299 = CARTESIAN_POINT ( 'NONE',  ( -2.601496728971953054, 1.255736835487438086, -13.97500000000000142 ) ) ;
#300 = CARTESIAN_POINT ( 'NONE',  ( -9.601496728971953942, 6.123233995736766282E-16, -5.000000000000000000 ) ) ;
#301 = EDGE_CURVE ( 'NONE', #145, #76, #220, .T. ) ;
#302 = DATE_AND_TIME ( #525, #675 ) ;
#303 = FACE_OUTER_BOUND ( 'NONE', #712, .T. ) ;
#304 = CARTESIAN_POINT ( 'NONE',  ( -2.601496728971953054, 0.000000000000000000, 0.000000000000000000 ) ) ;
#305 = FACE_OUTER_BOUND ( 'NONE', #851, .T. ) ;
#306 = ORIENTED_EDGE ( 'NONE', *, *, #659, .T. ) ;
#307 = APPROVAL_ROLE ( '' ) ;
#308 = PERSON_AND_ORGANIZATION_ROLE ( 'design_supplier' ) ;
#309 = DATE_AND_TIME ( #867, #449 ) ;
#310 = AXIS2_PLACEMENT_3D ( 'NONE', #304, #37, #177 ) ;
#311 = APPROVAL_DATE_TIME ( #180, #205 ) ;
#312 = AXIS2_PLACEMENT_3D ( 'NONE', #427, #31, #95 ) ;
#313 = DIRECTION ( 'NONE',  ( 1.000000000000000000, 0.000000000000000000, 0.000000000000000000 ) ) ;
#314 = CIRCLE ( 'NONE', #457, 4.700000000000000178 ) ;
#315 = CARTESIAN_POINT ( 'NONE',  ( -2.600496728971953164, 0.000000000000000000, 0.000000000000000000 ) ) ;
#316 = EDGE_LOOP ( 'NONE', ( #88, #159, #624, #58 ) ) ;
#317 = VERTEX_POINT ( 'NONE', #34 ) ;
#318 = EDGE_CURVE ( 'NONE', #136, #365, #36, .T. ) ;
#319 = ORIENTED_EDGE ( 'NONE', *, *, #651, .F. ) ;
#320 = DIRECTION ( 'NONE',  ( -1.000000000000000000, 0.000000000000000000, 0.000000000000000000 ) ) ;
#321 = CARTESIAN_POINT ( 'NONE',  ( -2.600496728971953164, 0.000000000000000000, 0.000000000000000000 ) ) ;
#322 = EDGE_CURVE ( 'NONE', #365, #136, #667, .T. ) ;
#323 = LOCAL_TIME ( 17, 31, 19.00000000000000000, #360 ) ;
#324 = LINE ( 'NONE', #875, #729 ) ;
#325 = CYLINDRICAL_SURFACE ( 'NONE', #488, 1.450000000000000400 ) ;
#326 = ORIENTED_EDGE ( 'NONE', *, *, #322, .T. ) ;
#327 = CARTESIAN_POINT ( 'NONE',  ( 0.3985032710280469459, 0.000000000000000000, 0.000000000000000000 ) ) ;
#328 = EDGE_LOOP ( 'NONE', ( #222, #421, #611, #374 ) ) ;
#329 = AXIS2_PLACEMENT_3D ( 'NONE', #482, #163, #615 ) ;
#330 = EDGE_CURVE ( 'NONE', #530, #528, #511, .T. ) ;
#331 = FACE_OUTER_BOUND ( 'NONE', #328, .T. ) ;
#332 = PLANE ( 'NONE',  #54 ) ;
#333 = ORIENTED_EDGE ( 'NONE', *, *, #456, .T. ) ;
#334 = EDGE_LOOP ( 'NONE', ( #622, #137, #590, #28 ) ) ;
#335 = ORIENTED_EDGE ( 'NONE', *, *, #472, .T. ) ;
#336 = CC_DESIGN_PERSON_AND_ORGANIZATION_ASSIGNMENT ( #824, #703, ( #837 ) ) ;
#337 = DIRECTION ( 'NONE',  ( -1.000000000000000000, -0.000000000000000000, -0.000000000000000000 ) ) ;
#338 = CIRCLE ( 'NONE', #761, 1.450000000000000844 ) ;
#339 = CYLINDRICAL_SURFACE ( 'NONE', #429, 8.000000000000000000 ) ;
#340 = AXIS2_PLACEMENT_3D ( 'NONE', #779, #93, #559 ) ;
#341 = EDGE_LOOP ( 'NONE', ( #224, #156, #296, #352 ) ) ;
#342 = EDGE_LOOP ( 'NONE', ( #573, #326 ) ) ;
#343 = DIRECTION ( 'NONE',  ( 0.000000000000000000, 0.000000000000000000, 1.000000000000000000 ) ) ;
#344 = EDGE_CURVE ( 'NONE', #185, #679, #209, .T. ) ;
#345 = ADVANCED_FACE ( 'NONE', ( #331 ), #325, .F. ) ;
#346 = PLANE ( 'NONE',  #283 ) ;
#347 = PRODUCT_DEFINITION_SHAPE ( 'NONE', 'NONE',  #94 ) ;
#348 = SHAPE_DEFINITION_REPRESENTATION ( #347, #844 ) ;
#349 = CARTESIAN_POINT ( 'NONE',  ( 0.000000000000000000, 0.000000000000000000, 0.000000000000000000 ) ) ;
#350 = FACE_OUTER_BOUND ( 'NONE', #364, .T. ) ;
#351 = CARTESIAN_POINT ( 'NONE',  ( -2.601496728971953054, 11.47483660014381179, 6.624999999999999112 ) ) ;
#352 = ORIENTED_EDGE ( 'NONE', *, *, #174, .F. ) ;
#353 = ORIENTED_EDGE ( 'NONE', *, *, #253, .T. ) ;
#354 = AXIS2_PLACEMENT_3D ( 'NONE', #71, #218, #403 ) ;
#355 = CARTESIAN_POINT ( 'NONE',  ( -2.600496728971953164, 0.000000000000000000, 10.00000000000000000 ) ) ;
#356 = CARTESIAN_POINT ( 'NONE',  ( -2.600496728971953164, 0.000000000000000000, 0.000000000000000000 ) ) ;
#357 = EDGE_CURVE ( 'NONE', #529, #262, #406, .T. ) ;
#358 = UNCERTAINTY_MEASURE_WITH_UNIT (LENGTH_MEASURE( 1.000000000000000082E-05 ), #552, 'distance_accuracy_value', 'NONE');
#359 = CARTESIAN_POINT ( 'NONE',  ( -2.601496728971953054, 0.000000000000000000, 8.000000000000000000 ) ) ;
#360 = COORDINATED_UNIVERSAL_TIME_OFFSET ( 2, 0, .AHEAD. ) ;
#361 = LINE ( 'NONE', #300, #3 ) ;
#362 = FACE_BOUND ( 'NONE', #562, .T. ) ;
#363 = CARTESIAN_POINT ( 'NONE',  ( -2.601496728971953054, 0.000000000000000000, 0.000000000000000000 ) ) ;
#364 = EDGE_LOOP ( 'NONE', ( #671, #172, #767, #117 ) ) ;
#365 = VERTEX_POINT ( 'NONE', #234 ) ;
#366 = ADVANCED_FACE ( 'NONE', ( #519, #558, #26, #451, #101 ), #516, .T. ) ;
#367 = CARTESIAN_POINT ( 'NONE',  ( 0.000000000000000000, 0.000000000000000000, 0.000000000000000000 ) ) ;
#368 = CC_DESIGN_DATE_AND_TIME_ASSIGNMENT ( #544, #846, ( #94 ) ) ;
#369 = SECURITY_CLASSIFICATION_LEVEL ( 'unclassified' ) ;
#370 = CARTESIAN_POINT ( 'NONE',  ( 0.5985032710280470125, 11.47483660014381179, 6.624999999999999112 ) ) ;
#371 = AXIS2_PLACEMENT_3D ( 'NONE', #553, #498, #92 ) ;
#372 = APPLICATION_PROTOCOL_DEFINITION ( 'international standard', 'config_control_design', 1994, #173 ) ;
#373 = FACE_OUTER_BOUND ( 'NONE', #538, .T. ) ;
#374 = ORIENTED_EDGE ( 'NONE', *, *, #504, .F. ) ;
#375 = PERSON_AND_ORGANIZATION_ROLE ( 'creator' ) ;
#376 = ORIENTED_EDGE ( 'NONE', *, *, #318, .F. ) ;
#377 = PERSON_AND_ORGANIZATION ( #251, #705 ) ;
#378 = PRODUCT_RELATED_PRODUCT_CATEGORY ( 'detail', '', ( #46 ) ) ;
#379 = FACE_BOUND ( 'NONE', #814, .T. ) ;
#380 = LINE ( 'NONE', #11, #849 ) ;
#381 = DIRECTION ( 'NONE',  ( 0.000000000000000000, -0.8660254037844384856, -0.5000000000000003331 ) ) ;
#382 = EDGE_LOOP ( 'NONE', ( #699, #27 ) ) ;
#383 = EDGE_CURVE ( 'NONE', #522, #464, #154, .T. ) ;
#384 = AXIS2_PLACEMENT_3D ( 'NONE', #356, #168, #22 ) ;
#385 = DIRECTION ( 'NONE',  ( 0.000000000000000000, 0.000000000000000000, 1.000000000000000000 ) ) ;
#386 = PRODUCT_DEFINITION_SHAPE ( 'NONE', 'NONE',  #68 ) ;
#387 = VECTOR ( 'NONE', #459, 1000.000000000000000 ) ;
#388 = CYLINDRICAL_SURFACE ( 'NONE', #714, 7.049999999999999822 ) ;
#389 = VERTEX_POINT ( 'NONE', #789 ) ;
#390 = ORIENTED_EDGE ( 'NONE', *, *, #443, .T. ) ;
#391 = DIRECTION ( 'NONE',  ( -1.000000000000000000, -0.000000000000000000, -0.000000000000000000 ) ) ;
#392 = AXIS2_PLACEMENT_3D ( 'NONE', #226, #682, #411 ) ;
#393 = AXIS2_PLACEMENT_3D ( 'NONE', #367, #98, #313 ) ;
#394 = EDGE_CURVE ( 'NONE', #768, #832, #484, .T. ) ;
#395 = COORDINATED_UNIVERSAL_TIME_OFFSET ( 2, 0, .AHEAD. ) ;
#396 = EDGE_CURVE ( 'NONE', #317, #582, #607, .T. ) ;
#397 = LINE ( 'NONE', #148, #694 ) ;
#398 = DIRECTION ( 'NONE',  ( 1.000000000000000000, 0.000000000000000000, 0.000000000000000000 ) ) ;
#399 = ORIENTED_EDGE ( 'NONE', *, *, #396, .F. ) ;
#400 = ORIENTED_EDGE ( 'NONE', *, *, #612, .T. ) ;
#401 = DIRECTION ( 'NONE',  ( 0.000000000000000000, 0.000000000000000000, -1.000000000000000000 ) ) ;
#402 = CC_DESIGN_DATE_AND_TIME_ASSIGNMENT ( #302, #706, ( #68 ) ) ;
#403 = DIRECTION ( 'NONE',  ( 0.000000000000000000, 0.000000000000000000, 1.000000000000000000 ) ) ;
#404 = APPROVAL_PERSON_ORGANIZATION ( #377, #771, #112 ) ;
#405 = CIRCLE ( 'NONE', #748, 1.449999999999999956 ) ;
#406 = CIRCLE ( 'NONE', #777, 10.00000000000000000 ) ;
#407 = EDGE_CURVE ( 'NONE', #530, #444, #537, .T. ) ;
#408 = CARTESIAN_POINT ( 'NONE',  ( 0.3985032710280469459, 1.734723475976807094E-15, -13.25000000000000178 ) ) ;
#409 = AXIS2_PLACEMENT_3D ( 'NONE', #20, #690, #292 ) ;
#410 = EDGE_LOOP ( 'NONE', ( #50, #609, #400, #765 ) ) ;
#411 = DIRECTION ( 'NONE',  ( 0.000000000000000000, 0.000000000000000000, 1.000000000000000000 ) ) ;
#412 = ORIENTED_EDGE ( 'NONE', *, *, #460, .F. ) ;
#413 = DIRECTION ( 'NONE',  ( 1.000000000000000000, 0.000000000000000000, 0.000000000000000000 ) ) ;
#414 = CARTESIAN_POINT ( 'NONE',  ( 0.3985032710280469459, 0.000000000000000000, 0.000000000000000000 ) ) ;
#415 = CARTESIAN_POINT ( 'NONE',  ( 0.3985032710280469459, -12.73057343563125166, 5.899999999999995914 ) ) ;
#416 = CARTESIAN_POINT ( 'NONE',  ( 0.3985032710280469459, 0.000000000000000000, 0.000000000000000000 ) ) ;
#417 = COORDINATED_UNIVERSAL_TIME_OFFSET ( 2, 0, .AHEAD. ) ;
#418 = LOCAL_TIME ( 17, 31, 19.00000000000000000, #152 ) ;
#419 = LINE ( 'NONE', #595, #387 ) ;
#420 = DIRECTION ( 'NONE',  ( 0.000000000000000000, 0.000000000000000000, 1.000000000000000000 ) ) ;
#421 = ORIENTED_EDGE ( 'NONE', *, *, #701, .T. ) ;
#422 = ADVANCED_FACE ( 'NONE', ( #548 ), #339, .T. ) ;
#423 = VERTEX_POINT ( 'NONE', #848 ) ;
#424 = CARTESIAN_POINT ( 'NONE',  ( 32.39850327102804783, 0.000000000000000000, 0.000000000000000000 ) ) ;
#425 = CC_DESIGN_PERSON_AND_ORGANIZATION_ASSIGNMENT ( #122, #43, ( #524 ) ) ;
#426 = DIRECTION ( 'NONE',  ( -1.000000000000000000, -0.000000000000000000, -0.000000000000000000 ) ) ;
#427 = CARTESIAN_POINT ( 'NONE',  ( -2.601496728971953054, 0.000000000000000000, 0.000000000000000000 ) ) ;
#428 = EDGE_CURVE ( 'NONE', #723, #250, #193, .T. ) ;
#429 = AXIS2_PLACEMENT_3D ( 'NONE', #315, #447, #716 ) ;
#430 = APPLICATION_CONTEXT ( 'configuration controlled 3d designs of mechanical parts and assemblies' ) ;
#431 = CYLINDRICAL_SURFACE ( 'NONE', #870, 1.450000000000000400 ) ;
#432 = LINE ( 'NONE', #32, #773 ) ;
#433 = DIRECTION ( 'NONE',  ( 0.000000000000000000, 0.8660254037844384856, 0.5000000000000003331 ) ) ;
#434 = VERTEX_POINT ( 'NONE', #658 ) ;
#435 = EDGE_LOOP ( 'NONE', ( #49, #502 ) ) ;
#436 = APPROVAL_STATUS ( 'not_yet_approved' ) ;
#437 = DIRECTION ( 'NONE',  ( 0.000000000000000000, 0.000000000000000000, 1.000000000000000000 ) ) ;
#438 = AXIS2_PLACEMENT_3D ( 'NONE', #370, #508, #574 ) ;
#439 = APPROVAL_STATUS ( 'not_yet_approved' ) ;
#440 = APPROVAL_PERSON_ORGANIZATION ( #111, #760, #239 ) ;
#441 = DIRECTION ( 'NONE',  ( -1.000000000000000000, 0.000000000000000000, 0.000000000000000000 ) ) ;
#442 = FACE_OUTER_BOUND ( 'NONE', #341, .T. ) ;
#443 = EDGE_CURVE ( 'NONE', #145, #317, #499, .T. ) ;
#444 = VERTEX_POINT ( 'NONE', #255 ) ;
#445 = VERTEX_POINT ( 'NONE', #114 ) ;
#446 = FACE_OUTER_BOUND ( 'NONE', #334, .T. ) ;
#447 = DIRECTION ( 'NONE',  ( -1.000000000000000000, -0.000000000000000000, -0.000000000000000000 ) ) ;
#448 = CARTESIAN_POINT ( 'NONE',  ( -2.601496728971953054, 0.000000000000000000, 16.50000000000000000 ) ) ;
#449 = LOCAL_TIME ( 17, 31, 19.00000000000000000, #246 ) ;
#450 = VECTOR ( 'NONE', #252, 1000.000000000000000 ) ;
#451 = FACE_OUTER_BOUND ( 'NONE', #621, .T. ) ;
#452 = DIRECTION ( 'NONE',  ( 0.000000000000000000, -0.8660254037844384856, -0.5000000000000003331 ) ) ;
#453 = ORIENTED_EDGE ( 'NONE', *, *, #138, .F. ) ;
#454 = EDGE_CURVE ( 'NONE', #467, #125, #134, .T. ) ;
#455 = VERTEX_POINT ( 'NONE', #448 ) ;
#456 = EDGE_CURVE ( 'NONE', #444, #530, #99, .T. ) ;
#457 = AXIS2_PLACEMENT_3D ( 'NONE', #668, #391, #591 ) ;
#458 = MANIFOLD_SOLID_BREP ( 'Cut-Extrude1', #539 ) ;
#459 = DIRECTION ( 'NONE',  ( -1.000000000000000000, 0.000000000000000000, 0.000000000000000000 ) ) ;
#460 = EDGE_CURVE ( 'NONE', #444, #455, #618, .T. ) ;
#461 = CARTESIAN_POINT ( 'NONE',  ( -0.6014967289719521659, 0.000000000000000000, 0.000000000000000000 ) ) ;
#462 = COORDINATED_UNIVERSAL_TIME_OFFSET ( 2, 0, .AHEAD. ) ;
#463 = VECTOR ( 'NONE', #542, 1000.000000000000000 ) ;
#464 = VERTEX_POINT ( 'NONE', #51 ) ;
#465 = DIRECTION ( 'NONE',  ( -1.000000000000000000, 0.000000000000000000, 0.000000000000000000 ) ) ;
#466 = ORIENTED_EDGE ( 'NONE', *, *, #428, .F. ) ;
#467 = VERTEX_POINT ( 'NONE', #644 ) ;
#468 = DIRECTION ( 'NONE',  ( 1.000000000000000000, 0.000000000000000000, 0.000000000000000000 ) ) ;
#469 = CC_DESIGN_PERSON_AND_ORGANIZATION_ASSIGNMENT ( #643, #308, ( #837 ) ) ;
#470 = DIRECTION ( 'NONE',  ( -1.000000000000000000, 0.000000000000000000, 0.000000000000000000 ) ) ;
#471 = LOCAL_TIME ( 17, 31, 19.00000000000000000, #2 ) ;
#472 = EDGE_CURVE ( 'NONE', #202, #786, #314, .T. ) ;
#473 = CIRCLE ( 'NONE', #103, 4.700000000000000178 ) ;
#474 = CARTESIAN_POINT ( 'NONE',  ( -2.600496728971953164, 0.000000000000000000, 0.000000000000000000 ) ) ;
#475 = AXIS2_PLACEMENT_3D ( 'NONE', #188, #441, #118 ) ;
#476 = ORIENTED_EDGE ( 'NONE', *, *, #645, .T. ) ;
#477 = EDGE_LOOP ( 'NONE', ( #830, #785 ) ) ;
#478 = ADVANCED_FACE ( 'NONE', ( #55 ), #588, .F. ) ;
#479 = DIRECTION ( 'NONE',  ( 1.000000000000000000, 0.000000000000000000, 0.000000000000000000 ) ) ;
#480 = DIRECTION ( 'NONE',  ( 0.000000000000000000, -0.8660254037844385966, 0.4999999999999998335 ) ) ;
#481 = ADVANCED_FACE ( 'NONE', ( #379, #784, #86, #362, #793 ), #332, .T. ) ;
#482 = CARTESIAN_POINT ( 'NONE',  ( 31.39850327102804783, 0.000000000000000000, 0.000000000000000000 ) ) ;
#483 = DIRECTION ( 'NONE',  ( -1.000000000000000000, 0.000000000000000000, 0.000000000000000000 ) ) ;
#484 = CIRCLE ( 'NONE', #215, 5.000000000000000000 ) ;
#485 = AXIS2_PLACEMENT_3D ( 'NONE', #625, #284, #619 ) ;
#486 = ADVANCED_FACE ( 'NONE', ( #237 ), #431, .F. ) ;
#487 = DIRECTION ( 'NONE',  ( 0.000000000000000000, 0.000000000000000000, 1.000000000000000000 ) ) ;
#488 = AXIS2_PLACEMENT_3D ( 'NONE', #244, #628, #170 ) ;
#489 = EDGE_LOOP ( 'NONE', ( #593, #466 ) ) ;
#490 = DIRECTION ( 'NONE',  ( -1.000000000000000000, 0.000000000000000000, 0.000000000000000000 ) ) ;
#491 = ORIENTED_EDGE ( 'NONE', *, *, #592, .T. ) ;
#492 = EDGE_LOOP ( 'NONE', ( #333, #551, #7, #412 ) ) ;
#493 = DIRECTION ( 'NONE',  ( 0.000000000000000000, 0.000000000000000000, 1.000000000000000000 ) ) ;
#494 = EDGE_CURVE ( 'NONE', #786, #202, #473, .T. ) ;
#495 = DIRECTION ( 'NONE',  ( 0.000000000000000000, 0.000000000000000000, 1.000000000000000000 ) ) ;
#496 = EDGE_CURVE ( 'NONE', #260, #434, #772, .T. ) ;
#497 = APPROVAL_DATE_TIME ( #133, #760 ) ;
#498 = DIRECTION ( 'NONE',  ( -1.000000000000000000, -0.000000000000000000, -0.000000000000000000 ) ) ;
#499 = LINE ( 'NONE', #581, #450 ) ;
#500 = CARTESIAN_POINT ( 'NONE',  ( -2.601496728971953054, 0.000000000000000000, 0.000000000000000000 ) ) ;
#501 = CYLINDRICAL_SURFACE ( 'NONE', #39, 16.50000000000000000 ) ;
#502 = ORIENTED_EDGE ( 'NONE', *, *, #555, .F. ) ;
#503 = DIRECTION ( 'NONE',  ( 1.000000000000000000, 0.000000000000000000, 0.000000000000000000 ) ) ;
#504 = EDGE_CURVE ( 'NONE', #829, #127, #419, .T. ) ;
#505 = CARTESIAN_POINT ( 'NONE',  ( -9.601496728971953942, 0.000000000000000000, 0.000000000000000000 ) ) ;
#506 = EDGE_CURVE ( 'NONE', #423, #864, #405, .T. ) ;
#507 = AXIS2_PLACEMENT_3D ( 'NONE', #129, #596, #452 ) ;
#508 = DIRECTION ( 'NONE',  ( -1.000000000000000000, -0.000000000000000000, -0.000000000000000000 ) ) ;
#509 = APPROVAL_PERSON_ORGANIZATION ( #655, #276, #575 ) ;
#510 = PERSON_AND_ORGANIZATION_ROLE ( 'design_supplier' ) ;
#511 = LINE ( 'NONE', #164, #258 ) ;
#512 = VERTEX_POINT ( 'NONE', #135 ) ;
#513 = ORIENTED_EDGE ( 'NONE', *, *, #383, .F. ) ;
#514 = PERSON_AND_ORGANIZATION_ROLE ( 'classification_officer' ) ;
#515 = ORIENTED_EDGE ( 'NONE', *, *, #651, .T. ) ;
#516 = PLANE ( 'NONE',  #9 ) ;
#517 = APPROVAL ( #439, 'UNSPECIFIED' ) ;
#518 = CIRCLE ( 'NONE', #805, 1.449999999999999956 ) ;
#519 = FACE_BOUND ( 'NONE', #435, .T. ) ;
#520 = ORIENTED_EDGE ( 'NONE', *, *, #192, .F. ) ;
#521 = DIRECTION ( 'NONE',  ( -1.000000000000000000, 0.000000000000000000, 0.000000000000000000 ) ) ;
#522 = VERTEX_POINT ( 'NONE', #203 ) ;
#523 = AXIS2_PLACEMENT_3D ( 'NONE', #189, #44, #652 ) ;
#524 = SECURITY_CLASSIFICATION ( '', '', #109 ) ;
#525 = CALENDAR_DATE ( 2026, 7, 9 ) ;
#526 = FACE_OUTER_BOUND ( 'NONE', #116, .T. ) ;
#527 = PLANE ( 'NONE',  #149 ) ;
#528 = VERTEX_POINT ( 'NONE', #263 ) ;
#529 = VERTEX_POINT ( 'NONE', #666 ) ;
#530 = VERTEX_POINT ( 'NONE', #259 ) ;
#531 = DIRECTION ( 'NONE',  ( -1.000000000000000000, -0.000000000000000000, -0.000000000000000000 ) ) ;
#532 = AXIS2_PLACEMENT_3D ( 'NONE', #704, #503, #433 ) ;
#533 = DATE_AND_TIME ( #97, #641 ) ;
#534 = DIRECTION ( 'NONE',  ( 0.000000000000000000, 0.8660254037844385966, -0.4999999999999998335 ) ) ;
#535 = COORDINATED_UNIVERSAL_TIME_OFFSET ( 2, 0, .AHEAD. ) ;
#536 = VECTOR ( 'NONE', #337, 1000.000000000000000 ) ;
#537 = CIRCLE ( 'NONE', #475, 16.50000000000000000 ) ;
#538 = EDGE_LOOP ( 'NONE', ( #520, #232, #491, #171 ) ) ;
#539 = CLOSED_SHELL ( 'NONE', ( #278, #74, #627, #819, #345, #478, #286, #147, #96, #481, #17, #681, #217, #366, #749, #631, #486, #758, #834, #422, #560, #91, #545, #295, #692 ) ) ;
#540 = EDGE_CURVE ( 'NONE', #570, #185, #324, .T. ) ;
#541 = CARTESIAN_POINT ( 'NONE',  ( -2.601496728971953054, 0.000000000000000000, 0.000000000000000000 ) ) ;
#542 = DIRECTION ( 'NONE',  ( -1.000000000000000000, -0.000000000000000000, -0.000000000000000000 ) ) ;
#543 = CARTESIAN_POINT ( 'NONE',  ( -2.600496728971953164, 1.224646799147353256E-15, -10.00000000000000000 ) ) ;
#544 = DATE_AND_TIME ( #288, #578 ) ;
#545 = ADVANCED_FACE ( 'NONE', ( #208, #598 ), #527, .T. ) ;
#546 = CARTESIAN_POINT ( 'NONE',  ( -2.601496728971953054, 0.000000000000000000, 0.000000000000000000 ) ) ;
#547 = AXIS2_PLACEMENT_3D ( 'NONE', #57, #196, #663 ) ;
#548 = FACE_OUTER_BOUND ( 'NONE', #807, .T. ) ;
#549 = CARTESIAN_POINT ( 'NONE',  ( -2.601496728971953054, 1.734723475976807094E-15, -13.25000000000000178 ) ) ;
#550 = EDGE_LOOP ( 'NONE', ( #601, #724 ) ) ;
#551 = ORIENTED_EDGE ( 'NONE', *, *, #330, .T. ) ;
#552 =( LENGTH_UNIT ( ) NAMED_UNIT ( * ) SI_UNIT ( .MILLI., .METRE. ) );
#553 = CARTESIAN_POINT ( 'NONE',  ( 0.5985032710280470125, 11.47483660014381179, 6.624999999999999112 ) ) ;
#554 = DIRECTION ( 'NONE',  ( 0.000000000000000000, 0.000000000000000000, 1.000000000000000000 ) ) ;
#555 = EDGE_CURVE ( 'NONE', #512, #829, #48, .T. ) ;
#556 = FACE_OUTER_BOUND ( 'NONE', #816, .T. ) ;
#557 = CARTESIAN_POINT ( 'NONE',  ( 0.3985032710280469459, 0.000000000000000000, 0.000000000000000000 ) ) ;
#558 = FACE_BOUND ( 'NONE', #550, .T. ) ;
#559 = DIRECTION ( 'NONE',  ( 0.000000000000000000, 0.000000000000000000, 1.000000000000000000 ) ) ;
#560 = ADVANCED_FACE ( 'NONE', ( #751 ), #587, .T. ) ;
#561 = ORIENTED_EDGE ( 'NONE', *, *, #428, .T. ) ;
#562 = EDGE_LOOP ( 'NONE', ( #19, #281 ) ) ;
#563 = DIRECTION ( 'NONE',  ( -1.000000000000000000, -0.000000000000000000, -0.000000000000000000 ) ) ;
#564 = AXIS2_PLACEMENT_3D ( 'NONE', #327, #576, #791 ) ;
#565 = APPLICATION_PROTOCOL_DEFINITION ( 'international standard', 'config_control_design', 1994, #175 ) ;
#566 = DIRECTION ( 'NONE',  ( 0.000000000000000000, 0.000000000000000000, 1.000000000000000000 ) ) ;
#567 = CIRCLE ( 'NONE', #822, 16.50000000000000000 ) ;
#568 = CARTESIAN_POINT ( 'NONE',  ( -2.600496728971953164, 0.000000000000000000, 10.00000000000000000 ) ) ;
#569 = VECTOR ( 'NONE', #155, 1000.000000000000000 ) ;
#570 = VERTEX_POINT ( 'NONE', #797 ) ;
#571 = PERSON_AND_ORGANIZATION_ROLE ( 'design_owner' ) ;
#572 = CC_DESIGN_PERSON_AND_ORGANIZATION_ASSIGNMENT ( #290, #778, ( #46 ) ) ;
#573 = ORIENTED_EDGE ( 'NONE', *, *, #318, .T. ) ;
#574 = DIRECTION ( 'NONE',  ( 0.000000000000000000, 0.000000000000000000, 1.000000000000000000 ) ) ;
#575 = APPROVAL_ROLE ( '' ) ;
#576 = DIRECTION ( 'NONE',  ( -1.000000000000000000, 0.000000000000000000, 0.000000000000000000 ) ) ;
#577 = AXIS2_PLACEMENT_3D ( 'NONE', #718, #852, #42 ) ;
#578 = LOCAL_TIME ( 17, 31, 19.00000000000000000, #762 ) ;
#579 = PERSON_AND_ORGANIZATION ( #251, #705 ) ;
#580 = FACE_OUTER_BOUND ( 'NONE', #342, .T. ) ;
#581 = CARTESIAN_POINT ( 'NONE',  ( 0.5985032710280470125, -12.73057343563125166, 5.899999999999995026 ) ) ;
#582 = VERTEX_POINT ( 'NONE', #61 ) ;
#583 = ORIENTED_EDGE ( 'NONE', *, *, #456, .F. ) ;
#584 = PRODUCT ( 'K01-P-007', 'K01-P-007', '', ( #850 ) ) ;
#585 = EDGE_CURVE ( 'NONE', #829, #512, #24, .T. ) ;
#586 = CARTESIAN_POINT ( 'NONE',  ( 0.3985032710280469459, 0.000000000000000000, 16.50000000000000000 ) ) ;
#587 = PLANE ( 'NONE',  #547 ) ;
#588 = CYLINDRICAL_SURFACE ( 'NONE', #507, 1.450000000000000844 ) ;
#589 = LINE ( 'NONE', #543, #5 ) ;
#590 = ORIENTED_EDGE ( 'NONE', *, *, #460, .T. ) ;
#591 = DIRECTION ( 'NONE',  ( 0.000000000000000000, 0.000000000000000000, 1.000000000000000000 ) ) ;
#592 = EDGE_CURVE ( 'NONE', #464, #786, #257, .T. ) ;
#593 = ORIENTED_EDGE ( 'NONE', *, *, #787, .F. ) ;
#594 = AXIS2_PLACEMENT_3D ( 'NONE', #321, #521, #110 ) ;
#595 = CARTESIAN_POINT ( 'NONE',  ( 0.5985032710280470125, 1.255736835487438086, -13.97500000000000142 ) ) ;
#596 = DIRECTION ( 'NONE',  ( -1.000000000000000000, 0.000000000000000000, 0.000000000000000000 ) ) ;
#597 = APPROVAL_PERSON_ORGANIZATION ( #579, #205, #307 ) ;
#598 = FACE_BOUND ( 'NONE', #139, .T. ) ;
#599 = ORIENTED_EDGE ( 'NONE', *, *, #659, .F. ) ;
#600 = ORIENTED_EDGE ( 'NONE', *, *, #383, .T. ) ;
#601 = ORIENTED_EDGE ( 'NONE', *, *, #301, .F. ) ;
#602 = DIRECTION ( 'NONE',  ( 0.000000000000000000, 0.000000000000000000, -1.000000000000000000 ) ) ;
#603 = CARTESIAN_POINT ( 'NONE',  ( 32.39850327102804783, 6.123233995736766282E-16, -5.000000000000000000 ) ) ;
#604 = EDGE_CURVE ( 'NONE', #262, #529, #143, .T. ) ;
#605 = PLANE ( 'NONE',  #121 ) ;
#606 = CYLINDRICAL_SURFACE ( 'NONE', #794, 8.000000000000000000 ) ;
#607 = CIRCLE ( 'NONE', #41, 1.450000000000000844 ) ;
#608 = CARTESIAN_POINT ( 'NONE',  ( -2.601496728971953054, 8.633759933988839975E-16, -7.049999999999999822 ) ) ;
#609 = ORIENTED_EDGE ( 'NONE', *, *, #632, .T. ) ;
#610 = CARTESIAN_POINT ( 'NONE',  ( -2.601496728971953054, 0.000000000000000000, 7.049999999999999822 ) ) ;
#611 = ORIENTED_EDGE ( 'NONE', *, *, #683, .T. ) ;
#612 = EDGE_CURVE ( 'NONE', #445, #864, #738, .T. ) ;
#613 = CC_DESIGN_PERSON_AND_ORGANIZATION_ASSIGNMENT ( #247, #183, ( #94 ) ) ;
#614 = CARTESIAN_POINT ( 'NONE',  ( 0.3985032710280469459, -10.21909976465637904, 7.349999999999995204 ) ) ;
#615 = DIRECTION ( 'NONE',  ( 0.000000000000000000, 0.000000000000000000, 1.000000000000000000 ) ) ;
#616 = LOCAL_TIME ( 17, 31, 19.00000000000000000, #462 ) ;
#617 = AXIS2_PLACEMENT_3D ( 'NONE', #233, #831, #229 ) ;
#618 = LINE ( 'NONE', #586, #656 ) ;
#619 = DIRECTION ( 'NONE',  ( 0.000000000000000000, 0.000000000000000000, 1.000000000000000000 ) ) ;
#620 = CARTESIAN_POINT ( 'NONE',  ( -0.6014967289719521659, 8.633759933988839975E-16, -7.049999999999999822 ) ) ;
#621 = EDGE_LOOP ( 'NONE', ( #583, #853 ) ) ;
#622 = ORIENTED_EDGE ( 'NONE', *, *, #330, .F. ) ;
#623 = PLANE ( 'NONE',  #266 ) ;
#624 = ORIENTED_EDGE ( 'NONE', *, *, #394, .F. ) ;
#625 = CARTESIAN_POINT ( 'NONE',  ( -2.601496728971953054, 0.000000000000000000, 0.000000000000000000 ) ) ;
#626 = EDGE_CURVE ( 'NONE', #528, #455, #567, .T. ) ;
#627 = ADVANCED_FACE ( 'NONE', ( #303 ), #606, .T. ) ;
#628 = DIRECTION ( 'NONE',  ( -1.000000000000000000, 0.000000000000000000, 0.000000000000000000 ) ) ;
#629 = CARTESIAN_POINT ( 'NONE',  ( -2.601496728971953054, 11.47483660014381179, 8.074999999999999289 ) ) ;
#630 = CARTESIAN_POINT ( 'NONE',  ( 32.39850327102804783, 0.000000000000000000, 5.000000000000000000 ) ) ;
#631 = ADVANCED_FACE ( 'NONE', ( #556 ), #123, .F. ) ;
#632 = EDGE_CURVE ( 'NONE', #389, #445, #219, .T. ) ;
#633 = VECTOR ( 'NONE', #470, 1000.000000000000000 ) ;
#634 = CC_DESIGN_APPROVAL ( #760, ( #68 ) ) ;
#635 = FACE_OUTER_BOUND ( 'NONE', #157, .T. ) ;
#636 = ORIENTED_EDGE ( 'NONE', *, *, #472, .F. ) ;
#637 = APPLICATION_CONTEXT ( 'configuration controlled 3d designs of mechanical parts and assemblies' ) ;
#638 = DIRECTION ( 'NONE',  ( -1.000000000000000000, -0.000000000000000000, -0.000000000000000000 ) ) ;
#639 = MECHANICAL_CONTEXT ( 'NONE', #430, 'mechanical' ) ;
#640 = DIRECTION ( 'NONE',  ( -1.000000000000000000, 0.000000000000000000, 0.000000000000000000 ) ) ;
#641 = LOCAL_TIME ( 17, 31, 19.00000000000000000, #256 ) ;
#642 = DATE_TIME_ROLE ( 'classification_date' ) ;
#643 = PERSON_AND_ORGANIZATION ( #251, #705 ) ;
#644 = CARTESIAN_POINT ( 'NONE',  ( -2.600496728971953164, 9.797174393178825657E-16, -8.000000000000000000 ) ) ;
#645 = EDGE_CURVE ( 'NONE', #389, #423, #248, .T. ) ;
#646 = FACE_OUTER_BOUND ( 'NONE', #489, .T. ) ;
#647 = ORIENTED_EDGE ( 'NONE', *, *, #626, .T. ) ;
#648 = ORIENTED_EDGE ( 'NONE', *, *, #540, .F. ) ;
#649 = DIRECTION ( 'NONE',  ( 0.000000000000000000, 0.000000000000000000, 1.000000000000000000 ) ) ;
#650 = ORIENTED_EDGE ( 'NONE', *, *, #683, .F. ) ;
#651 = EDGE_CURVE ( 'NONE', #125, #467, #35, .T. ) ;
#652 = DIRECTION ( 'NONE',  ( 0.000000000000000000, 0.000000000000000000, 1.000000000000000000 ) ) ;
#653 = PRODUCT_RELATED_PRODUCT_CATEGORY ( 'detail', '', ( #584 ) ) ;
#654 = DIRECTION ( 'NONE',  ( 0.000000000000000000, 0.000000000000000000, -1.000000000000000000 ) ) ;
#655 = PERSON_AND_ORGANIZATION ( #251, #705 ) ;
#656 = VECTOR ( 'NONE', #726, 1000.000000000000000 ) ;
#657 = CYLINDRICAL_SURFACE ( 'NONE', #102, 4.700000000000000178 ) ;
#658 = CARTESIAN_POINT ( 'NONE',  ( -2.601496728971953054, 0.000000000000000000, 10.00000000000000000 ) ) ;
#659 = EDGE_CURVE ( 'NONE', #76, #582, #397, .T. ) ;
#660 = AXIS2_PLACEMENT_3D ( 'NONE', #214, #747, #343 ) ;
#661 = ORIENTED_EDGE ( 'NONE', *, *, #344, .F. ) ;
#662 = ORIENTED_EDGE ( 'NONE', *, *, #265, .F. ) ;
#663 = DIRECTION ( 'NONE',  ( -0.000000000000000000, 0.000000000000000000, 1.000000000000000000 ) ) ;
#664 = CC_DESIGN_APPROVAL ( #128, ( #261 ) ) ;
#665 = CALENDAR_DATE ( 2026, 7, 9 ) ;
#666 = CARTESIAN_POINT ( 'NONE',  ( -2.600496728971953164, 1.224646799147353256E-15, -10.00000000000000000 ) ) ;
#667 = CIRCLE ( 'NONE', #340, 8.000000000000000000 ) ;
#668 = CARTESIAN_POINT ( 'NONE',  ( -0.6014967289719521659, 0.000000000000000000, 0.000000000000000000 ) ) ;
#669 = ORIENTED_EDGE ( 'NONE', *, *, #396, .T. ) ;
#670 = AXIS2_PLACEMENT_3D ( 'NONE', #557, #563, #759 ) ;
#671 = ORIENTED_EDGE ( 'NONE', *, *, #213, .F. ) ;
#672 = DIRECTION ( 'NONE',  ( -1.000000000000000000, 0.000000000000000000, 0.000000000000000000 ) ) ;
#673 = CARTESIAN_POINT ( 'NONE',  ( 0.5985032710280470125, -1.255736835487434755, -12.52500000000000213 ) ) ;
#674 = DESIGN_CONTEXT ( 'detailed design', #173, 'design' ) ;
#675 = LOCAL_TIME ( 17, 31, 19.00000000000000000, #395 ) ;
#676 = FACE_BOUND ( 'NONE', #199, .T. ) ;
#677 = CYLINDRICAL_SURFACE ( 'NONE', #702, 7.049999999999999822 ) ;
#678 = ORIENTED_EDGE ( 'NONE', *, *, #857, .T. ) ;
#679 = VERTEX_POINT ( 'NONE', #608 ) ;
#680 = DIRECTION ( 'NONE',  ( -1.000000000000000000, 0.000000000000000000, 0.000000000000000000 ) ) ;
#681 = ADVANCED_FACE ( 'NONE', ( #646 ), #605, .T. ) ;
#682 = DIRECTION ( 'NONE',  ( -1.000000000000000000, -0.000000000000000000, -0.000000000000000000 ) ) ;
#683 = EDGE_CURVE ( 'NONE', #115, #127, #113, .T. ) ;
#684 = AXIS2_PLACEMENT_3D ( 'NONE', #267, #672, #799 ) ;
#685 = LOCAL_TIME ( 17, 31, 19.00000000000000000, #535 ) ;
#686 = FACE_OUTER_BOUND ( 'NONE', #316, .T. ) ;
#687 = ORIENTED_EDGE ( 'NONE', *, *, #81, .F. ) ;
#688 = ORIENTED_EDGE ( 'NONE', *, *, #828, .T. ) ;
#689 = EDGE_LOOP ( 'NONE', ( #240, #306, #711, #273 ) ) ;
#690 = DIRECTION ( 'NONE',  ( -1.000000000000000000, -0.000000000000000000, 0.000000000000000000 ) ) ;
#691 = CARTESIAN_POINT ( 'NONE',  ( -2.600496728971953164, 0.000000000000000000, 8.000000000000000000 ) ) ;
#692 = ADVANCED_FACE ( 'NONE', ( #812, #580 ), #346, .T. ) ;
#693 = CC_DESIGN_DATE_AND_TIME_ASSIGNMENT ( #533, #642, ( #195 ) ) ;
#694 = VECTOR ( 'NONE', #69, 1000.000000000000000 ) ;
#695 = CARTESIAN_POINT ( 'NONE',  ( -9.601496728971953942, 0.000000000000000000, 0.000000000000000000 ) ) ;
#696 = VECTOR ( 'NONE', #835, 1000.000000000000000 ) ;
#697 = ORIENTED_EDGE ( 'NONE', *, *, #357, .T. ) ;
#698 = DIRECTION ( 'NONE',  ( -1.000000000000000000, 0.000000000000000000, 0.000000000000000000 ) ) ;
#699 = ORIENTED_EDGE ( 'NONE', *, *, #394, .T. ) ;
#700 = DIRECTION ( 'NONE',  ( -1.000000000000000000, -0.000000000000000000, -0.000000000000000000 ) ) ;
#701 = EDGE_CURVE ( 'NONE', #512, #115, #719, .T. ) ;
#702 = AXIS2_PLACEMENT_3D ( 'NONE', #695, #769, #437 ) ;
#703 = PERSON_AND_ORGANIZATION_ROLE ( 'creator' ) ;
#704 = CARTESIAN_POINT ( 'NONE',  ( 0.3985032710280469459, -11.47483660014381535, 6.624999999999995559 ) ) ;
#705 = ORGANIZATION ( 'UNSPECIFIED', 'UNSPECIFIED', '' ) ;
#706 = DATE_TIME_ROLE ( 'creation_date' ) ;
#707 = CC_DESIGN_DATE_AND_TIME_ASSIGNMENT ( #839, #775, ( #524 ) ) ;
#708 = FACE_OUTER_BOUND ( 'NONE', #6, .T. ) ;
#709 = DIRECTION ( 'NONE',  ( -1.000000000000000000, 0.000000000000000000, 0.000000000000000000 ) ) ;
#710 = ORIENTED_EDGE ( 'NONE', *, *, #265, .T. ) ;
#711 = ORIENTED_EDGE ( 'NONE', *, *, #764, .T. ) ;
#712 = EDGE_LOOP ( 'NONE', ( #515, #710, #376, #64 ) ) ;
#713 = CARTESIAN_POINT ( 'NONE',  ( -2.600496728971953164, 0.000000000000000000, 0.000000000000000000 ) ) ;
#714 = AXIS2_PLACEMENT_3D ( 'NONE', #505, #638, #566 ) ;
#715 = CC_DESIGN_PERSON_AND_ORGANIZATION_ASSIGNMENT ( #277, #510, ( #261 ) ) ;
#716 = DIRECTION ( 'NONE',  ( 0.000000000000000000, 0.000000000000000000, 1.000000000000000000 ) ) ;
#717 = PERSON_AND_ORGANIZATION ( #251, #705 ) ;
#718 = CARTESIAN_POINT ( 'NONE',  ( 31.39850327102804783, 0.000000000000000000, 0.000000000000000000 ) ) ;
#719 = LINE ( 'NONE', #673, #633 ) ;
#720 = AXIS2_PLACEMENT_3D ( 'NONE', #349, #225, #179 ) ;
#721 = CIRCLE ( 'NONE', #746, 7.049999999999999822 ) ;
#722 = ORIENTED_EDGE ( 'NONE', *, *, #275, .T. ) ;
#723 = VERTEX_POINT ( 'NONE', #603 ) ;
#724 = ORIENTED_EDGE ( 'NONE', *, *, #828, .F. ) ;
#725 = EDGE_CURVE ( 'NONE', #464, #522, #191, .T. ) ;
#726 = DIRECTION ( 'NONE',  ( -1.000000000000000000, 0.000000000000000000, 0.000000000000000000 ) ) ;
#727 = CARTESIAN_POINT ( 'NONE',  ( -2.601496728971953054, 0.000000000000000000, 0.000000000000000000 ) ) ;
#728 = PERSON_AND_ORGANIZATION ( #251, #705 ) ;
#729 = VECTOR ( 'NONE', #264, 1000.000000000000000 ) ;
#730 = CIRCLE ( 'NONE', #485, 16.50000000000000000 ) ;
#731 = AXIS2_PLACEMENT_3D ( 'NONE', #416, #84, #554 ) ;
#732 = AXIS2_PLACEMENT_3D ( 'NONE', #810, #468, #401 ) ;
#733 = ORIENTED_EDGE ( 'NONE', *, *, #494, .F. ) ;
#734 = ORIENTED_EDGE ( 'NONE', *, *, #174, .T. ) ;
#735 = CARTESIAN_POINT ( 'NONE',  ( 0.3985032710280469459, 1.734723475976807094E-15, -13.25000000000000178 ) ) ;
#736 = CARTESIAN_POINT ( 'NONE',  ( -2.601496728971953054, 11.47483660014381179, 6.624999999999999112 ) ) ;
#737 = DIRECTION ( 'NONE',  ( 0.000000000000000000, -0.8660254037844385966, 0.4999999999999998335 ) ) ;
#738 = LINE ( 'NONE', #67, #463 ) ;
#739 = CYLINDRICAL_SURFACE ( 'NONE', #392, 5.000000000000000000 ) ;
#740 = EDGE_LOOP ( 'NONE', ( #687, #650 ) ) ;
#741 = DIRECTION ( 'NONE',  ( 0.000000000000000000, -0.8660254037844384856, -0.5000000000000003331 ) ) ;
#742 = ORIENTED_EDGE ( 'NONE', *, *, #210, .T. ) ;
#743 = CC_DESIGN_PERSON_AND_ORGANIZATION_ASSIGNMENT ( #178, #375, ( #261 ) ) ;
#744 = DIRECTION ( 'NONE',  ( -1.000000000000000000, -0.000000000000000000, -0.000000000000000000 ) ) ;
#745 = DESIGN_CONTEXT ( 'detailed design', #637, 'design' ) ;
#746 = AXIS2_PLACEMENT_3D ( 'NONE', #285, #162, #756 ) ;
#747 = DIRECTION ( 'NONE',  ( -1.000000000000000000, 0.000000000000000000, 0.000000000000000000 ) ) ;
#748 = AXIS2_PLACEMENT_3D ( 'NONE', #736, #465, #385 ) ;
#749 = ADVANCED_FACE ( 'NONE', ( #279 ), #291, .F. ) ;
#750 = PERSON_AND_ORGANIZATION ( #251, #705 ) ;
#751 = FACE_OUTER_BOUND ( 'NONE', #212, .T. ) ;
#752 = DIRECTION ( 'NONE',  ( 0.000000000000000000, 0.000000000000000000, 1.000000000000000000 ) ) ;
#753 = CIRCLE ( 'NONE', #78, 7.049999999999999822 ) ;
#754 = DIRECTION ( 'NONE',  ( -1.000000000000000000, -0.000000000000000000, -0.000000000000000000 ) ) ;
#755 = ORIENTED_EDGE ( 'NONE', *, *, #781, .F. ) ;
#756 = DIRECTION ( 'NONE',  ( 0.000000000000000000, 0.000000000000000000, 1.000000000000000000 ) ) ;
#757 = DIRECTION ( 'NONE',  ( -1.000000000000000000, -0.000000000000000000, -0.000000000000000000 ) ) ;
#758 = ADVANCED_FACE ( 'NONE', ( #802 ), #70, .F. ) ;
#759 = DIRECTION ( 'NONE',  ( 0.000000000000000000, 0.000000000000000000, 1.000000000000000000 ) ) ;
#760 = APPROVAL ( #243, 'UNSPECIFIED' ) ;
#761 = AXIS2_PLACEMENT_3D ( 'NONE', #158, #79, #87 ) ;
#762 = COORDINATED_UNIVERSAL_TIME_OFFSET ( 2, 0, .AHEAD. ) ;
#763 = CIRCLE ( 'NONE', #670, 5.000000000000000000 ) ;
#764 = EDGE_CURVE ( 'NONE', #582, #317, #270, .T. ) ;
#765 = ORIENTED_EDGE ( 'NONE', *, *, #186, .T. ) ;
#766 = DIRECTION ( 'NONE',  ( 0.000000000000000000, 0.8660254037844385966, -0.4999999999999998335 ) ) ;
#767 = ORIENTED_EDGE ( 'NONE', *, *, #540, .T. ) ;
#768 = VERTEX_POINT ( 'NONE', #836 ) ;
#769 = DIRECTION ( 'NONE',  ( -1.000000000000000000, -0.000000000000000000, -0.000000000000000000 ) ) ;
#770 = APPROVAL_STATUS ( 'not_yet_approved' ) ;
#771 = APPROVAL ( #245, 'UNSPECIFIED' ) ;
#772 = CIRCLE ( 'NONE', #684, 10.00000000000000000 ) ;
#773 = VECTOR ( 'NONE', #700, 1000.000000000000000 ) ;
#774 = ORIENTED_EDGE ( 'NONE', *, *, #275, .F. ) ;
#775 = DATE_TIME_ROLE ( 'classification_date' ) ;
#776 = EDGE_LOOP ( 'NONE', ( #399, #104 ) ) ;
#777 = AXIS2_PLACEMENT_3D ( 'NONE', #713, #320, #649 ) ;
#778 = PERSON_AND_ORGANIZATION_ROLE ( 'design_owner' ) ;
#779 = CARTESIAN_POINT ( 'NONE',  ( -2.601496728971953054, 0.000000000000000000, 0.000000000000000000 ) ) ;
#780 = APPLICATION_PROTOCOL_DEFINITION ( 'international standard', 'config_control_design', 1994, #637 ) ;
#781 = EDGE_CURVE ( 'NONE', #832, #768, #763, .T. ) ;
#782 = APPROVAL_PERSON_ORGANIZATION ( #750, #128, #235 ) ;
#783 = APPROVAL_PERSON_ORGANIZATION ( #717, #517, #105 ) ;
#784 = FACE_BOUND ( 'NONE', #740, .T. ) ;
#785 = ORIENTED_EDGE ( 'NONE', *, *, #632, .F. ) ;
#786 = VERTEX_POINT ( 'NONE', #227 ) ;
#787 = EDGE_CURVE ( 'NONE', #250, #723, #63, .T. ) ;
#788 = CARTESIAN_POINT ( 'NONE',  ( -2.601496728971953054, -11.47483660014381535, 6.624999999999995559 ) ) ;
#789 = CARTESIAN_POINT ( 'NONE',  ( 0.3985032710280469459, 11.47483660014381179, 5.174999999999998934 ) ) ;
#790 = APPROVAL_DATE_TIME ( #309, #128 ) ;
#791 = DIRECTION ( 'NONE',  ( 0.000000000000000000, 0.000000000000000000, 1.000000000000000000 ) ) ;
#792 = AXIS2_PLACEMENT_3D ( 'NONE', #89, #230, #16 ) ;
#793 = FACE_OUTER_BOUND ( 'NONE', #211, .T. ) ;
#794 = AXIS2_PLACEMENT_3D ( 'NONE', #474, #274, #752 ) ;
#795 = CYLINDRICAL_SURFACE ( 'NONE', #8, 4.700000000000000178 ) ;
#796 = ORIENTED_EDGE ( 'NONE', *, *, #504, .T. ) ;
#797 = CARTESIAN_POINT ( 'NONE',  ( -0.6014967289719521659, 0.000000000000000000, 7.049999999999999822 ) ) ;
#798 = ORIENTED_EDGE ( 'NONE', *, *, #192, .T. ) ;
#799 = DIRECTION ( 'NONE',  ( 0.000000000000000000, 0.000000000000000000, 1.000000000000000000 ) ) ;
#800 = CARTESIAN_POINT ( 'NONE',  ( 0.5985032710280470125, 1.734723475976807094E-15, -13.25000000000000178 ) ) ;
#801 = PERSON_AND_ORGANIZATION ( #251, #705 ) ;
#802 = FACE_OUTER_BOUND ( 'NONE', #106, .T. ) ;
#803 = EDGE_CURVE ( 'NONE', #723, #832, #361, .T. ) ;
#804 = CC_DESIGN_APPROVAL ( #771, ( #195 ) ) ;
#805 = AXIS2_PLACEMENT_3D ( 'NONE', #821, #413, #13 ) ;
#806 = ORIENTED_EDGE ( 'NONE', *, *, #701, .F. ) ;
#807 = EDGE_LOOP ( 'NONE', ( #662, #18, #353, #59 ) ) ;
#808 = ORIENTED_EDGE ( 'NONE', *, *, #228, .T. ) ;
#809 = CC_DESIGN_PERSON_AND_ORGANIZATION_ASSIGNMENT ( #801, #571, ( #584 ) ) ;
#810 = CARTESIAN_POINT ( 'NONE',  ( 0.3985032710280469459, 11.47483660014381179, 6.624999999999999112 ) ) ;
#811 = CALENDAR_DATE ( 2026, 7, 9 ) ;
#812 = FACE_BOUND ( 'NONE', #90, .T. ) ;
#813 = CIRCLE ( 'NONE', #310, 10.00000000000000000 ) ;
#814 = EDGE_LOOP ( 'NONE', ( #774, #231 ) ) ;
#815 = CC_DESIGN_PERSON_AND_ORGANIZATION_ASSIGNMENT ( #207, #33, ( #68 ) ) ;
#816 = EDGE_LOOP ( 'NONE', ( #599, #688, #390, #669 ) ) ;
#817 = CARTESIAN_POINT ( 'NONE',  ( 32.39850327102804783, 0.000000000000000000, 0.000000000000000000 ) ) ;
#818 = CARTESIAN_POINT ( 'NONE',  ( -9.601496728971953942, 8.633759933988839975E-16, -7.049999999999999822 ) ) ;
#819 = ADVANCED_FACE ( 'NONE', ( #442 ), #166, .F. ) ;
#820 = AXIS2_PLACEMENT_3D ( 'NONE', #549, #223, #766 ) ;
#821 = CARTESIAN_POINT ( 'NONE',  ( 0.3985032710280469459, 11.47483660014381179, 6.624999999999999112 ) ) ;
#822 = AXIS2_PLACEMENT_3D ( 'NONE', #546, #141, #10 ) ;
#823 = DIRECTION ( 'NONE',  ( -1.000000000000000000, -0.000000000000000000, -0.000000000000000000 ) ) ;
#824 = PERSON_AND_ORGANIZATION ( #251, #705 ) ;
#825 = CARTESIAN_POINT ( 'NONE',  ( 0.3985032710280469459, 6.123233995736766282E-16, -5.000000000000000000 ) ) ;
#826 = VECTOR ( 'NONE', #823, 1000.000000000000000 ) ;
#827 = DIRECTION ( 'NONE',  ( -1.000000000000000000, -0.000000000000000000, -0.000000000000000000 ) ) ;
#828 = EDGE_CURVE ( 'NONE', #76, #145, #338, .T. ) ;
#829 = VERTEX_POINT ( 'NONE', #29 ) ;
#830 = ORIENTED_EDGE ( 'NONE', *, *, #857, .F. ) ;
#831 = DIRECTION ( 'NONE',  ( -1.000000000000000000, -0.000000000000000000, -0.000000000000000000 ) ) ;
#832 = VERTEX_POINT ( 'NONE', #825 ) ;
#833 = DIRECTION ( 'NONE',  ( -1.000000000000000000, -0.000000000000000000, -0.000000000000000000 ) ) ;
#834 = ADVANCED_FACE ( 'NONE', ( #676, #861 ), #623, .T. ) ;
#835 = DIRECTION ( 'NONE',  ( -1.000000000000000000, -0.000000000000000000, -0.000000000000000000 ) ) ;
#836 = CARTESIAN_POINT ( 'NONE',  ( 0.3985032710280469459, 0.000000000000000000, 5.000000000000000000 ) ) ;
#837 = PRODUCT_DEFINITION_FORMATION_WITH_SPECIFIED_SOURCE ( 'ANY', '', #584, .NOT_KNOWN. ) ;
#838 = DIRECTION ( 'NONE',  ( 0.000000000000000000, 0.000000000000000000, 1.000000000000000000 ) ) ;
#839 = DATE_AND_TIME ( #62, #616 ) ;
#840 = VECTOR ( 'NONE', #744, 1000.000000000000000 ) ;
#841 = LINE ( 'NONE', #25, #124 ) ;
#842 = ORIENTED_EDGE ( 'NONE', *, *, #604, .T. ) ;
#843 = AXIS2_PLACEMENT_3D ( 'NONE', #363, #640, #838 ) ;
#844 = ADVANCED_BREP_SHAPE_REPRESENTATION ( 'K01-P-007', ( #458, #720 ), #855 ) ;
#845 = CARTESIAN_POINT ( 'NONE',  ( -2.601496728971953054, 1.224646799147353256E-15, -10.00000000000000000 ) ) ;
#846 = DATE_TIME_ROLE ( 'creation_date' ) ;
#847 = APPROVAL_STATUS ( 'not_yet_approved' ) ;
#848 = CARTESIAN_POINT ( 'NONE',  ( -2.601496728971953054, 11.47483660014381179, 5.174999999999998934 ) ) ;
#849 = VECTOR ( 'NONE', #77, 1000.000000000000000 ) ;
#850 = MECHANICAL_CONTEXT ( 'NONE', #175, 'mechanical' ) ;
#851 = EDGE_LOOP ( 'NONE', ( #513, #798, #335, #249 ) ) ;
#852 = DIRECTION ( 'NONE',  ( -1.000000000000000000, -0.000000000000000000, -0.000000000000000000 ) ) ;
#853 = ORIENTED_EDGE ( 'NONE', *, *, #407, .F. ) ;
#854 = CC_DESIGN_APPROVAL ( #276, ( #524 ) ) ;
#855 =( GEOMETRIC_REPRESENTATION_CONTEXT ( 3 ) GLOBAL_UNCERTAINTY_ASSIGNED_CONTEXT ( ( #358 ) ) GLOBAL_UNIT_ASSIGNED_CONTEXT ( ( #552, #153, #287 ) ) REPRESENTATION_CONTEXT ( 'NONE', 'WORKASPACE' ) );
#856 = DIRECTION ( 'NONE',  ( 0.000000000000000000, 0.000000000000000000, 1.000000000000000000 ) ) ;
#857 = EDGE_CURVE ( 'NONE', #445, #389, #518, .T. ) ;
#858 = CARTESIAN_POINT ( 'NONE',  ( 0.3985032710280469459, 0.000000000000000000, 0.000000000000000000 ) ) ;
#859 = AXIS2_PLACEMENT_3D ( 'NONE', #1, #216, #534 ) ;
#860 = APPROVAL_DATE_TIME ( #268, #517 ) ;
#861 = FACE_OUTER_BOUND ( 'NONE', #194, .T. ) ;
#862 = LINE ( 'NONE', #818, #569 ) ;
#863 = CARTESIAN_POINT ( 'NONE',  ( 0.3985032710280469459, 0.000000000000000000, 0.000000000000000000 ) ) ;
#864 = VERTEX_POINT ( 'NONE', #629 ) ;
#865 = DIRECTION ( 'NONE',  ( -0.000000000000000000, 0.000000000000000000, 1.000000000000000000 ) ) ;
#866 = DIRECTION ( 'NONE',  ( -1.000000000000000000, 0.000000000000000000, 0.000000000000000000 ) ) ;
#867 = CALENDAR_DATE ( 2026, 7, 9 ) ;
#868 = CARTESIAN_POINT ( 'NONE',  ( -9.601496728971953942, 0.000000000000000000, 4.700000000000000178 ) ) ;
#869 = CALENDAR_DATE ( 2026, 7, 9 ) ;
#870 = AXIS2_PLACEMENT_3D ( 'NONE', #800, #866, #126 ) ;
#871 = FACE_OUTER_BOUND ( 'NONE', #492, .T. ) ;
#872 = ORIENTED_EDGE ( 'NONE', *, *, #506, .T. ) ;
#873 = ORIENTED_EDGE ( 'NONE', *, *, #85, .F. ) ;
#874 = ORIENTED_EDGE ( 'NONE', *, *, #803, .F. ) ;
#875 = CARTESIAN_POINT ( 'NONE',  ( -9.601496728971953942, 0.000000000000000000, 7.049999999999999822 ) ) ;
ENDSEC;
END-ISO-10303-21;
